# xmcd
#
# Track frame offsets:
#	150
#	25786
#	55743
#	79625
#	100549
#	122364
#	146621
#	175787
#	200244
#	224163
#
# Disc length: 3314 seconds
#
# Revision: 3022346557
# Processed by: cddbd v1.5.2PL0 Copyright (c) Steve Scherf et al.
# Submitted via: EZCDAudioConverter 8.0.2.1
#
DISCID=860cf00a
DTITLE=Hương Lan - Điệu Buồn Phương Nam
DYEAR=2000
DGENRE=Vietnamese
TTITLE0=Điệu Buồn Phương Nam
TTITLE1=Bài ca đất phương Nam
TTITLE2=Dạ cổ hoài lang
TTITLE3=Tiếng hát chim đa đa
TTITLE4=Giữa lòng phương Nam
TTITLE5=Con sáo còn buồn
TTITLE6=Võng đưa tình cũ
TTITLE7=Em tôi
TTITLE8=Độc huyền
TTITLE9=Chân quê
EXTD=
EXTT0=
EXTT1=
EXTT2=
EXTT3=
EXTT4=
EXTT5=
EXTT6=
EXTT7=
EXTT8=
EXTT9=
PLAYORDER=
